<?xml version="1.0" encoding="UTF-8"?>
<svg id="Layer_1" data-name="Layer 1" xmlns="http://www.w3.org/2000/svg" viewBox="0 0 1828.86 425.01">
  <defs>
    <style>
      .cls-1 {
        fill: #fed700;
      }

      .cls-1, .cls-2 {
        stroke-width: 0px;
      }

      .cls-2 {
        fill: #febf10;
      }

      .cls-3 {
        fill: #333;
        font-family: ArimaKoshi-ExtraBold, 'Arima Koshi';
        font-size: 253.59px;
        font-weight: 700;
      }
    </style>
  </defs>
  <g>
    <path class="cls-2" d="M234.57,65.69v93.37c0,6.79,3.62,13.06,9.5,16.45l80.86,46.69c5.88,3.39,13.12,3.39,19,0l80.86-46.69c5.88-3.39,9.5-9.67,9.5-16.45v-93.37c0-6.79-3.62-13.06-9.5-16.45L343.94,2.55c-5.88-3.39-13.12-3.39-19,0l-80.86,46.69c-5.88,3.39-9.5,9.67-9.5,16.45Z"/>
    <path class="cls-1" d="M422.32,152.14v-79.54c0-6.79-3.62-13.06-9.5-16.45l-68.88-39.77c-5.88-3.39-13.12-3.39-19,0l-68.88,39.77c-5.88,3.39-9.5,9.67-9.5,16.45v79.54c0,6.79,3.62,13.06,9.5,16.45l68.88,39.77c5.88,3.39,13.12,3.39,19,0l68.88-39.77c5.88-3.39,9.5-9.67,9.5-16.45Z"/>
  </g>
  <g>
    <path class="cls-2" d="M117.69,265.96v93.37c0,6.79,3.62,13.06,9.5,16.45l80.86,46.69c5.88,3.39,13.12,3.39,19,0l80.86-46.69c5.88-3.39,9.5-9.67,9.5-16.45v-93.37c0-6.79-3.62-13.06-9.5-16.45l-80.86-46.69c-5.88-3.39-13.12-3.39-19,0l-80.86,46.69c-5.88,3.39-9.5,9.67-9.5,16.45Z"/>
    <path class="cls-1" d="M305.43,352.41v-79.54c0-6.79-3.62-13.06-9.5-16.45l-68.88-39.77c-5.88-3.39-13.12-3.39-19,0l-68.88,39.77c-5.88,3.39-9.5,9.67-9.5,16.45v79.54c0,6.79,3.62,13.06,9.5,16.45l68.88,39.77c5.88,3.39,13.12,3.39,19,0l68.88-39.77c5.88-3.39,9.5-9.67,9.5-16.45Z"/>
  </g>
  <g>
    <path class="cls-2" d="M199.72,159.06v-93.37c0-6.79-3.62-13.06-9.5-16.45L109.36,2.55c-5.88-3.39-13.12-3.39-19,0L9.5,49.23C3.62,52.62,0,58.9,0,65.69v93.37c0,6.79,3.62,13.06,9.5,16.45l80.86,46.69c5.88,3.39,13.12,3.39,19,0l80.86-46.69c5.88-3.39,9.5-9.67,9.5-16.45Z"/>
    <path class="cls-1" d="M187.74,152.14v-79.54c0-6.79-3.62-13.06-9.5-16.45L109.36,16.38c-5.88-3.39-13.12-3.39-19,0L21.48,56.15c-5.88,3.39-9.5,9.67-9.5,16.45v79.54c0,6.79,3.62,13.06,9.5,16.45l68.88,39.77c5.88,3.39,13.12,3.39,19,0l68.88-39.77c5.88-3.39,9.5-9.67,9.5-16.45Z"/>
  </g>
  <text class="cls-3" transform="translate(491.21 281.95)"><tspan x="0" y="0">honeycomb</tspan></text>
</svg>